<svg width="96" height="96" viewBox="0 0 435 476" fill="none" xmlns="http://www.w3.org/2000/svg">
<g filter="url(#filter0_d_1_13)">
<path d="M175.051 79.7727C173.352 64.803 166.461 53.1818 154.378 44.9091C142.295 36.6364 127.474 32.5 109.916 32.5C97.0777 32.5 85.8442 34.6667 76.2155 39C66.6811 43.3333 59.2236 49.2917 53.8428 56.875C48.5565 64.4583 45.9133 73.0757 45.9133 82.7273C45.9133 90.803 47.7541 97.7462 51.4356 103.557C55.2116 109.269 60.026 114.045 65.8787 117.886C71.7315 121.629 77.8674 124.731 84.2866 127.193C90.7057 129.557 96.6057 131.477 101.986 132.955L131.439 141.227C138.991 143.295 147.393 146.151 156.644 149.795C165.989 153.439 174.91 158.413 183.406 164.716C191.996 170.92 199.076 178.898 204.646 188.648C210.215 198.398 213 210.364 213 224.545C213 240.894 208.894 255.667 200.681 268.864C192.563 282.061 180.668 292.549 164.998 300.33C149.422 308.11 130.495 312 108.217 312C87.449 312 69.4659 308.504 54.2676 301.511C39.1637 294.519 27.2694 284.769 18.5847 272.261C9.99435 259.754 5.13279 245.227 4 228.682H40.2493C41.1933 240.106 44.8749 249.561 51.294 257.045C57.8076 264.432 66.0203 269.947 75.9323 273.591C85.9386 277.136 96.7001 278.909 108.217 278.909C121.622 278.909 133.657 276.644 144.325 272.114C154.992 267.485 163.44 261.083 169.671 252.909C175.901 244.636 179.016 234.985 179.016 223.955C179.016 213.909 176.326 205.735 170.945 199.432C165.564 193.129 158.484 188.008 149.705 184.068C140.926 180.129 131.439 176.682 121.244 173.727L85.561 163.091C62.9052 156.295 44.9693 146.595 31.7534 133.989C18.5375 121.383 11.9295 104.886 11.9295 84.5C11.9295 67.5606 16.3191 52.7879 25.0982 40.1818C33.9718 27.4773 45.8661 17.6288 60.7812 10.6364C75.7907 3.54545 92.5465 0 111.049 0C129.74 0 146.354 3.49621 160.892 10.4886C175.429 17.3826 186.946 26.8371 195.442 38.8523C204.032 50.8674 208.563 64.5076 209.035 79.7727H175.051Z" fill="#C41F63"/>
<path d="M226 468V155H329.076C349.614 155 366.554 158.77 379.894 166.31C393.234 173.747 403.168 183.783 409.694 196.417C416.22 208.95 419.483 222.857 419.483 238.141C419.483 251.59 417.228 262.696 412.717 271.458C408.302 280.22 402.448 287.149 395.154 292.243C387.956 297.338 380.134 301.107 371.688 303.553V306.609C380.71 307.221 389.779 310.583 398.897 316.696C408.014 322.81 415.644 331.572 421.787 342.983C427.929 354.395 431 368.353 431 384.859C431 400.55 427.641 414.662 420.923 427.194C414.205 439.726 403.599 449.66 389.107 456.996C374.615 464.332 355.757 468 332.531 468H226ZM261.702 434.377H332.531C355.853 434.377 372.408 429.588 382.197 420.011C392.083 410.331 397.025 398.614 397.025 384.859C397.025 374.263 394.482 364.482 389.395 355.516C384.309 346.448 377.063 339.214 367.657 333.813C358.252 328.312 347.119 325.561 334.258 325.561H261.702V434.377ZM261.702 292.549H327.924C338.673 292.549 348.367 290.307 357.004 285.824C365.738 281.341 372.648 275.024 377.735 266.873C382.917 258.722 385.508 249.145 385.508 238.141C385.508 224.386 380.998 212.72 371.976 203.142C362.955 193.463 348.654 188.623 329.076 188.623H261.702V292.549Z" fill="#F1478E"/>
</g>
<defs>
<filter id="filter0_d_1_13" x="0" y="0" width="435" height="476" filterUnits="userSpaceOnUse" color-interpolation-filters="sRGB">
<feFlood flood-opacity="0" result="BackgroundImageFix"/>
<feColorMatrix in="SourceAlpha" type="matrix" values="0 0 0 0 0 0 0 0 0 0 0 0 0 0 0 0 0 0 127 0" result="hardAlpha"/>
<feOffset dy="4"/>
<feGaussianBlur stdDeviation="2"/>
<feComposite in2="hardAlpha" operator="out"/>
<feColorMatrix type="matrix" values="0 0 0 0 0 0 0 0 0 0 0 0 0 0 0 0 0 0 0.25 0"/>
<feBlend mode="normal" in2="BackgroundImageFix" result="effect1_dropShadow_1_13"/>
<feBlend mode="normal" in="SourceGraphic" in2="effect1_dropShadow_1_13" result="shape"/>
</filter>
</defs>
</svg>
